<?xml version="1.0" encoding="utf-8"?>
<!-- Generator: Adobe Illustrator 22.1.0, SVG Export Plug-In . SVG Version: 6.00 Build 0)  -->
<svg version="1.1" id="Layer_1" xmlns="http://www.w3.org/2000/svg" xmlns:xlink="http://www.w3.org/1999/xlink" x="0px" y="0px"
	 viewBox="0 0 416 90" style="enable-background:new 0 0 416 90;" xml:space="preserve">
<style type="text/css">
	.st0{fill:#FCFCFC;}
	.st1{fill:#FFFFFF;}
</style>
<g>
	<g>
		<g>
			<circle cx="358.4" cy="68" r="4"/>
			<path class="st0" d="M358,67.6c-0.5,0-0.8,0.3-0.9,0.7l0,0l-0.7,1.7v3h1v-3l0.2-0.5v-0.1c0.1,0.1,0.3,0.1,0.5,0.1
				c0.6,0,1-0.4,1-1S358.6,67.6,358,67.6z"/>
		</g>
		<g>
			<path d="M358.4,19l1,11c0.3,1.1-5.8,2.8-7,10c0,0-1,3-3,4c-0.9,0.4-2,0-2,0s-2,13,13,17v3c0,0,15,9,28-8c0,0,3-19-3-24V19l-9,8
				c0,0-5-1-9,0L358.4,19z"/>
			<path class="st1" d="M355.4,41c0,0,0-7,9-6C364.4,35,363.4,43,355.4,41z"/>
			<g>
				<circle cx="364.4" cy="70" r="4"/>
				<path class="st0" d="M364.8,69.6c0.5,0,0.8,0.3,0.9,0.7l0,0l0.7,1.7v3h-1v-3l-0.2-0.5v-0.1c-0.1,0.1-0.3,0.1-0.5,0.1
					c-0.6,0-1-0.4-1-1S364.2,69.6,364.8,69.6z"/>
			</g>
			<path d="M369.4,67.6c3.1,0.5,16.2-3.3,19-10.6l-1,7c0.2,2.2-12.8,7.8-18,9V67.6z"/>
		</g>
	</g>
	<path d="M396.7,10c3.6,0,6.5,2.9,6.5,6.5v61c0,3.6-2.9,6.5-6.5,6.5h-57c-3.6,0-6.5-2.9-6.5-6.5v-61c0-3.6,2.9-6.5,6.5-6.5H396.7
		 M396.7,6h-57c-5.8,0-10.5,4.7-10.5,10.5v61c0,5.8,4.7,10.5,10.5,10.5h57c5.8,0,10.5-4.7,10.5-10.5v-61C407.2,10.7,402.5,6,396.7,6
		L396.7,6z"/>
</g>
<path d="M56.4,31.8H14.2v-3.4h13.3v-12h7.2v12h9.8c0.7-1.5,1.3-3,1.7-4.5c0.4-1.7,0.6-3.4,0.6-5.2v-8.6H16.5V6.8H54v10.5
	c0,2-0.2,4-0.6,5.8c-0.5,1.9-1.1,3.7-1.9,5.3h5V31.8z"/>
<path d="M88.5,8.3c2.2,1.4,3.3,3.1,3.3,5.2c0,2.1-1.1,3.8-3.3,5.2C86,20.2,82.6,21,78.2,21c-4.5,0-7.9-0.8-10.3-2.3
	c-2.2-1.4-3.3-3.1-3.3-5.2c0-2.1,1.1-3.9,3.3-5.2c2.4-1.5,5.8-2.2,10.3-2.2C82.6,6.1,86,6.8,88.5,8.3z M99.8,24.6
	c3,1.1,4.5,2.5,4.5,4.1c0,1.6-1.5,3-4.5,4c-3.4,1.2-8,1.9-13.9,1.9c-5.9,0-10.6-0.6-13.9-1.9c-3-1.1-4.5-2.4-4.5-4
	c0-1.6,1.5-3,4.5-4.1c3.4-1.2,8-1.9,13.9-1.9C91.8,22.7,96.4,23.3,99.8,24.6z M73.3,10.4c-0.9,0.8-1.4,1.8-1.4,3.1
	c0,1.3,0.5,2.3,1.4,3.1c1.1,0.9,2.7,1.3,4.9,1.3c2.1,0,3.7-0.4,4.8-1.3c1-0.8,1.5-1.8,1.5-3.1c0-1.3-0.5-2.4-1.5-3.1
	c-1.1-0.9-2.7-1.3-4.8-1.3C76,9.1,74.4,9.5,73.3,10.4z M77.3,26.7c-1.8,0.5-2.6,1.2-2.6,2c0,0.7,0.9,1.4,2.6,1.9
	c2,0.6,4.8,0.9,8.3,0.9c3.7,0,6.5-0.3,8.6-0.9c1.9-0.5,2.8-1.1,2.8-1.9c0-0.8-0.9-1.4-2.8-2c-2.1-0.6-5-0.9-8.6-0.9
	C82,25.8,79.3,26.1,77.3,26.7z M103.6,6.2v2.7h4.9v3h-4.9v3.8h4.9v3.1h-4.9v3.1h-7.2V6.2H103.6z"/>
<path d="M137.7,9.9c2.2,2.3,3.3,5.3,3.3,8.8c0,3.8-1.1,6.9-3.3,9.2c-2.3,2.6-5.6,3.9-9.8,3.9c-4.3,0-7.6-1.3-9.9-3.9
	c-2.2-2.4-3.3-5.5-3.3-9.2c0-3.6,1.1-6.5,3.3-8.8c2.4-2.5,5.7-3.8,9.9-3.8C132.1,6.1,135.4,7.3,137.7,9.9z M123.4,11.9
	c-0.9,1.7-1.4,4-1.4,6.7c0,3,0.5,5.4,1.4,7.2c1,2,2.5,2.9,4.5,2.9c1.9,0,3.4-1,4.4-2.9c1-1.8,1.5-4.2,1.5-7.2c0-2.8-0.5-5-1.5-6.7
	c-1.1-1.9-2.6-2.8-4.4-2.8C125.9,9.1,124.4,10,123.4,11.9z M154.2,6.2v27.6H147V6.2H154.2z"/>
<path d="M200,10.9h30.8v3h-15.6v2.6h17.6v3.2h-42.2v-3.2H208V14h-9.2c-1.9,0-3.3-0.3-4.4-0.9c-1.1-0.6-1.6-1.3-1.6-2.2l0.1-6.7h7.2
	L200,10.9z M230.4,21.5v7.4h-30.2v1.5h30.6v3.1h-31.2c-2.1,0-3.8-0.3-4.9-0.8c-1.1-0.5-1.7-1.3-1.7-2.3v-4.6h30.2v-1.2h-30.2v-3.1
	H230.4z"/>
<path d="M269.3,7.3v25h-6.7v-25H269.3z"/>
<path d="M300.7,6.8v3h-15.6v6.7h14v3h-14v8h24.1v-8.2h-7.1v-3h7.1V6.2h7.2v27.6h-7.2v-3.2h-24.7c-2.2,0-3.9-0.3-4.9-0.8
	c-1.1-0.5-1.7-1.4-1.7-2.5V6.8H300.7z"/>
<g>
	<circle cx="248.2" cy="19.8" r="11.8"/>
	<g>
		<circle class="st1" cx="245.2" cy="26.1" r="1.2"/>
		<path d="M245.1,25.9c-0.2,0-0.2,0.1-0.2,0.2l0,0l-0.2,0.5v0.9h0.3v-0.9l0.1-0.2l0,0c0.1,0,0.1,0.1,0.2,0.1c0.2,0,0.3-0.2,0.3-0.3
			C245.5,26.1,245.3,25.9,245.1,25.9z"/>
		<path class="st1" d="M245.2,11.3l0.3,3.3c0.1,0.3-1.7,0.8-2.1,3c0,0-0.3,0.9-0.9,1.2c-0.2,0.2-0.6,0-0.6,0s-0.6,3.9,3.9,5.1v0.9
			c0,0,4.5,2.7,8.4-2.4c0,0,0.9-5.7-0.9-7.2v-3.9l-2.7,2.4c0,0-1.5-0.3-2.7,0L245.2,11.3z"/>
		<path d="M244.3,18c0,0,0-2.1,2.7-1.8C247,16.2,246.7,18.6,244.3,18z"/>
		<circle class="st1" cx="247" cy="26.7" r="1.2"/>
		<path d="M247.1,26.6c0.2,0,0.2,0.1,0.2,0.2l0,0l0.2,0.5v0.9h-0.3v-0.9l-0.1-0.2l0,0c-0.1,0-0.1,0.1-0.2,0.1
			c-0.2,0-0.3-0.2-0.3-0.3C246.9,26.7,246.9,26.6,247.1,26.6z"/>
		<path class="st1" d="M248.5,26c0.9,0.2,4.9-1,5.7-3.2l-0.3,2.1c0.1,0.7-3.9,2.3-5.4,2.7L248.5,26L248.5,26z"/>
	</g>
</g>
<path d="M76.5,59.1v5.2H7v-5.2H76.5z M73.7,42.3v5h-9.1v4.3h9.1v5.1h-64v-5.1H19v-4.3H9.7v-5H73.7z M72.5,67.1v12H22.8v2.1h50.4v5.1
	H21.8c-3.5,0-6.2-0.5-8.1-1.4c-1.8-0.9-2.7-2.1-2.7-3.8V74h49.7v-1.8H10.9v-5.1H72.5z M30.9,47.3v4.3h21.9v-4.3H30.9z"/>
<path d="M117.5,42.3v21.1h-15.6v13.1h25.3V63.7h-8.5v-5.3h8.5v-17H139v45.4h-11.7v-5.3h-26.8c-3.4,0-5.9-0.4-7.7-1.3
	c-1.8-0.9-2.6-2.2-2.6-3.9V58.4h15.6V47.3H90.1v-5H117.5z M156.5,41.4v45.4h-11.7V41.4H156.5z"/>
<path d="M210.4,47.4c3.6,3.8,5.5,8.7,5.5,14.5c0,6.2-1.8,11.3-5.5,15.2c-3.9,4.3-9.3,6.4-16.2,6.4c-7,0-12.5-2.1-16.4-6.4
	c-3.6-3.9-5.4-9-5.4-15.2c0-5.9,1.8-10.7,5.4-14.5c4-4.2,9.4-6.2,16.4-6.2C201.1,41.1,206.5,43.2,210.4,47.4z M186.7,50.8
	c-1.6,2.9-2.3,6.6-2.3,11.1c0,4.9,0.8,8.9,2.3,11.9c1.7,3.2,4.2,4.8,7.4,4.8c3.2,0,5.6-1.6,7.3-4.8c1.6-3,2.4-6.9,2.4-11.9
	c0-4.5-0.8-8.2-2.4-11.1c-1.8-3.1-4.2-4.7-7.3-4.7C190.9,46.1,188.5,47.7,186.7,50.8z M237.5,41.4v45.4h-11.9V41.4H237.5z"/>
<g>
	<path d="M271.2,51.7c0.1-0.4,0.2-0.8,0.3-1.3c0-0.4,0.1-0.9,0.1-1.4v-2.8h-13.9v-5.3H281v7c0,5.8-2,10.5-5.9,14.1
		c-3.5,3.2-8.8,5.7-16.1,7.7l-4.1-4.1c3.8-1,6.8-2.1,9-3.4c2.4-1.4,4.1-3.1,5.2-5.1h-10.6v-5.3H271.2z M298.7,77.9
		c3.9,2.3,8.6,3.8,14.1,4.4l-3.9,4.7c-4.7-0.7-9-1.9-13-3.6c-4-1.8-6.9-3.8-8.8-6c-1.7,2.2-4.7,4.3-9,6.1c-4.2,1.8-8.9,3-14,3.7
		l-3.6-4.6c5.3-0.6,10.1-2.1,14.4-4.5c4.9-2.8,7.4-6.1,7.4-9.8h9.4C291.7,72.1,294,75.3,298.7,77.9z M296.6,39.9v10.5h4.7V39.9h9.3
		v31.2h-9.3V55.9h-4.7v10.2h-9.3V39.9H296.6z"/>
</g>
</svg>
