<?xml version="1.0" encoding="utf-8"?>
<!-- Generator: Adobe Illustrator 22.1.0, SVG Export Plug-In . SVG Version: 6.00 Build 0)  -->
<svg version="1.1" id="Layer_1" xmlns="http://www.w3.org/2000/svg" xmlns:xlink="http://www.w3.org/1999/xlink" x="0px" y="0px"
	 viewBox="0 0 416 90" style="enable-background:new 0 0 416 90;" xml:space="preserve">
<style type="text/css">
	.st0{fill:#FCFCFC;}
	.st1{fill:#FFFFFF;}
</style>
<g>
	<path d="M97.9,41.2c-2.3,0-4.4-0.6-6.2-1.9s-3.2-3-4.3-5.4s-1.5-5.2-1.5-8.6v-1.5c0-3.1,0.5-5.8,1.4-8.2s2.3-4.2,4.1-5.6
		c1.8-1.3,3.8-2,6.3-2c1.7,0,3.3,0.3,4.8,0.9s2.9,1.6,4.3,3.1v8.3h-4.2l-0.6-4.7c-0.4-0.3-0.8-0.6-1.2-0.9c-0.4-0.3-0.9-0.4-1.3-0.6
		c-0.5-0.1-1-0.2-1.5-0.2c-1.2,0-2.3,0.4-3.2,1.2S93,17,92.5,18.5s-0.8,3.3-0.8,5.4v1.5c0,2,0.3,3.7,0.8,5.2
		c0.5,1.5,1.3,2.7,2.2,3.5c0.9,0.8,2,1.3,3.3,1.3c0.7,0,1.3-0.1,2-0.3c0.7-0.2,1.3-0.4,2-0.7l0.6-4.5h4.3v8.1
		c-1,0.9-2.2,1.7-3.7,2.3C101.6,40.9,99.8,41.2,97.9,41.2z"/>
	<path d="M108,40.7v-4.5l1.7-0.3l7.2-27.3h6.3l7.2,27.3l1.7,0.3v4.5h-9v-4.5l1.6-0.4l-0.7-3.5h-7.8l-0.7,3.5l1.6,0.4v4.5H108z
		 M117.4,26.9h5.3l-2.4-9.7l-0.3-1.1H120l-0.3,1.2L117.4,26.9z"/>
	<path d="M137,40.7v-4.5l2.5-0.7V14.6h-3.7l-0.1,3.5h-4.4V8.6h22.5v9.5h-4.5l-0.1-3.5h-3.8v20.9l2.5,0.7v4.5H137z"/>
	<path d="M162.9,40.7v-4.5l2.5-0.7V13.9l-2.5-0.7V8.6h2.5h9.3c1.9,0,3.6,0.4,5,1.3c1.4,0.9,2.5,2.1,3.3,3.7c0.8,1.6,1.2,3.5,1.2,5.6
		c0,2.1-0.4,4-1.2,5.6c-0.8,1.6-1.9,2.8-3.3,3.7c-1.4,0.9-3.1,1.3-5,1.3h-3.4v5.7l2.5,0.7v4.5H162.9z M171.2,23.9h3.4
		c1.2,0,2.1-0.4,2.7-1.3c0.6-0.9,0.9-2,0.9-3.3c0-1.4-0.3-2.5-0.9-3.4s-1.5-1.3-2.7-1.3h-3.4V23.9z"/>
	<path d="M185.2,40.7v-4.5l2.5-0.7V13.9l-2.5-0.7V8.6h2.5h5.8h3.1v4.5l-3.1,0.7v21h5.8l0.1-4.5h4.5v10.4H185.2z"/>
	<path d="M204.6,40.7v-4.5l1.7-0.3l7.2-27.3h6.3l7.2,27.3l1.7,0.3v4.5h-9v-4.5l1.6-0.4l-0.7-3.5h-7.8l-0.7,3.5l1.6,0.4v4.5H204.6z
		 M214,26.9h5.3l-2.4-9.7l-0.3-1.1h-0.1l-0.3,1.2L214,26.9z"/>
	<path d="M232.2,40.7v-4.5l2.5-0.7v-5.4l-7-16.5l-2.5-0.5V8.6h10.5v4.5l-1.5,0.4l3.3,8.8l0.4,1.1h0.1l0.4-1.1l3.9-8.9l-2.5-0.4V8.6
		h10.3v4.5l-2.6,0.5l-7,15.9v6l2.5,0.7v4.5H232.2z"/>
	<path d="M270.9,41.2c-2.5,0-4.6-0.6-6.4-1.9s-3.1-3.1-4-5.4c-0.9-2.3-1.4-5-1.4-8v-1.5c0-3.2,0.4-6,1.3-8.5
		c0.9-2.4,2.2-4.4,3.9-5.7s3.8-2.1,6.2-2.1c1.7,0,3.3,0.3,5,1c1.7,0.7,3.1,1.7,4.4,3.2v7.5h-4.2l-0.9-4.1c-0.4-0.5-0.9-0.9-1.6-1.3
		c-0.7-0.3-1.5-0.5-2.3-0.5c-1.3,0-2.4,0.4-3.3,1.3c-0.9,0.9-1.6,2.1-2,3.7c-0.4,1.6-0.7,3.4-0.7,5.4v1.5c0,1.9,0.2,3.6,0.7,5.1
		c0.5,1.4,1.2,2.5,2.1,3.3c0.9,0.8,2,1.2,3.4,1.2c0.7,0,1.4-0.1,2.1-0.3c0.7-0.2,1.2-0.4,1.6-0.6v-4.2l-2.7-0.4v-5.3h8.6v13.3
		c-1.3,1.1-2.8,2-4.4,2.5S272.8,41.2,270.9,41.2z"/>
	<path d="M282.5,40.7v-4.5l2.5-0.7V13.9l-2.5-0.7V8.6h11.9c1.9,0,3.6,0.4,5,1.2s2.5,2,3.3,3.5c0.8,1.5,1.1,3.3,1.1,5.3
		c0,1.9-0.4,3.6-1.2,5.3c-0.8,1.6-1.8,2.9-3.2,3.9c-1.3,1-2.9,1.5-4.6,1.4l-4-0.1v6.4l2.5,0.7v4.5H282.5z M290.9,23.2h3.6
		c1.1,0,2-0.3,2.6-1s0.9-1.7,0.9-3c0-1.4-0.3-2.5-0.9-3.3c-0.6-0.8-1.5-1.2-2.7-1.2h-3.6V23.2z M297.9,40.7l-3.3-12.5l5.1-2.3
		l2.9,9.6l2.3,0.8v4.5H297.9z"/>
	<path d="M343.5,41.2c-2.1,0-3.9-0.4-5.4-1.3c-1.5-0.9-2.7-2.2-3.6-3.9c-0.8-1.7-1.3-3.8-1.3-6.3V13.9l-2.5-0.7V8.6h10.8v4.5
		l-2.5,0.7v15.8c0,1.3,0.2,2.4,0.5,3.2c0.3,0.8,0.8,1.5,1.5,1.9s1.5,0.6,2.4,0.6c1,0,1.8-0.2,2.5-0.6c0.7-0.4,1.2-1,1.5-1.9
		c0.3-0.8,0.5-1.9,0.5-3.2V13.9l-2.5-0.7V8.6h10.8v4.5l-2.5,0.7v15.8c0,2.4-0.4,4.5-1.3,6.3c-0.9,1.7-2.1,3-3.6,4
		C347.3,40.8,345.5,41.2,343.5,41.2z"/>
	<path d="M357.2,40.7v-4.5l2.5-0.7V13.9l-2.5-0.7V8.6h2.5h5.9l9.7,20.6h0.1V13.9l-3.2-0.7V8.6h8.4h2.5v4.5l-2.5,0.7v26.9h-5.8
		L365,20.6h-0.1v14.9l3.2,0.7v4.5H357.2z"/>
	<path d="M384,40.7v-4.5l2.5-0.8V14l-2.5-0.8V8.6h2.5h8.8c2.2,0,4.1,0.7,5.8,2c1.7,1.3,3,3.2,4,5.6c1,2.4,1.4,5.1,1.4,8.2v0.5
		c0,3.1-0.5,5.8-1.4,8.2s-2.3,4.2-4,5.6c-1.7,1.3-3.6,2-5.8,2H384z M392.4,34.9h2.7c1.2,0,2.3-0.4,3.1-1.2c0.8-0.8,1.5-2,1.9-3.5
		c0.4-1.5,0.6-3.2,0.6-5.2v-0.5c0-2-0.2-3.7-0.6-5.2c-0.4-1.5-1.1-2.6-1.9-3.5c-0.8-0.8-1.9-1.2-3.1-1.2h-2.7V34.9z"/>
</g>
<g>
	<g>
		<g>
			<circle cx="33.1" cy="67.5" r="4"/>
			<path class="st0" d="M32.7,67.1c-0.5,0-0.8,0.3-0.9,0.7l0,0l-0.7,1.7v3h1v-3l0.2-0.5l0-0.1c0.1,0.1,0.3,0.1,0.5,0.1
				c0.6,0,1-0.4,1-1S33.3,67.1,32.7,67.1z"/>
		</g>
		<g>
			<path d="M33.1,18.5l1,11c0.3,1.1-5.8,2.8-7,10c0,0-1,3-3,4c-0.9,0.4-2,0-2,0s-2,13,13,17v3c0,0,15,9,28-8c0,0,3-19-3-24v-13l-9,8
				c0,0-5-1-9,0L33.1,18.5z"/>
			<path class="st1" d="M30.1,40.5c0,0,0-7,9-6C39.1,34.5,38.1,42.5,30.1,40.5z"/>
			<g>
				<circle cx="39.1" cy="69.5" r="4"/>
				<path class="st0" d="M39.5,69.1c0.5,0,0.8,0.3,0.9,0.7l0,0l0.7,1.7v3h-1v-3L39.9,71l0-0.1c-0.1,0.1-0.3,0.1-0.5,0.1
					c-0.6,0-1-0.4-1-1S38.9,69.1,39.5,69.1z"/>
			</g>
			<path d="M44.1,67.1c3.1,0.5,16.2-3.3,19-10.6l-1,7c0.2,2.2-12.8,7.8-18,9V67.1z"/>
		</g>
	</g>
	<path d="M71.4,9.5c3.6,0,6.5,2.9,6.5,6.5v61c0,3.6-2.9,6.5-6.5,6.5h-57c-3.6,0-6.5-2.9-6.5-6.5V16c0-3.6,2.9-6.5,6.5-6.5H71.4
		 M71.4,5.5h-57C8.6,5.5,3.9,10.2,3.9,16v61c0,5.8,4.7,10.5,10.5,10.5h57c5.8,0,10.5-4.7,10.5-10.5V16C81.9,10.2,77.2,5.5,71.4,5.5
		L71.4,5.5z"/>
</g>
<g>
	<path d="M86.8,77.9h2.4V56h-2.4v-8h21.3c4.2,0,7.4,0.9,9.6,2.7c2.2,1.8,3.3,4.7,3.3,8.7c0,4-1.1,6.9-3.3,8.7
		c-2.2,1.8-5.4,2.7-9.6,2.7h-5.3v7h4.7v8H86.8V77.9z M104.5,64c1.9,0,2.8-1,2.8-3.1v-1.7c0-1.1-0.2-1.9-0.7-2.4
		c-0.5-0.5-1.2-0.8-2.1-0.8h-1.7v8H104.5z"/>
	<path d="M122.6,85.8v-8h2.4V56h-2.4v-8h20.5v8h-4.5v21.9h4.4v-4.5h9.7v12.4H122.6z"/>
	<path d="M190,77.9h1.9v8h-19v-8h2.9l-0.8-3.9h-6.6l-0.8,3.9h2.9v8H154v-8h1.9l8.2-29.8h17.7L190,77.9z M169.5,68.8h4.5l-2-9.7h-0.5
		L169.5,68.8z"/>
	<path d="M208,48h14.9v8h-1.9l-9.4,16.8v5.1h2.4v8h-18.5v-8h2.4v-5.1L188.3,56h-1.9v-8h18.8v8h-1.7l2.9,7.5h0.5l2.9-7.5H208V48z"/>
	<path d="M227.7,81.9c-3.3-3.1-5-8.1-5-14.9c0-13.1,6.3-19.6,19-19.6c3.1,0,5.9,0.4,8.6,1.1c2.6,0.7,4.6,1.6,5.9,2.5v12.1h-11.7
		v-3.5c0-1.2-0.3-2.1-0.8-2.7s-1.4-0.9-2.5-0.9c-1.1,0-1.9,0.3-2.5,0.9c-0.6,0.6-0.8,1.5-0.8,2.7v14.7c0,1.2,0.3,2.1,0.8,2.7
		c0.5,0.6,1.4,0.9,2.5,0.9c1.1,0,1.9-0.3,2.5-0.9c0.6-0.6,0.8-1.5,0.8-2.7v-3.9h11.7v12.6c-1.3,0.9-3.3,1.7-5.9,2.5
		c-2.6,0.7-5.4,1.1-8.5,1.1C235.7,86.5,231,85,227.7,81.9z"/>
	<path d="M293.7,77.9h1.9v8h-19v-8h2.9l-0.8-3.9h-6.6l-0.8,3.9h2.9v8h-16.6v-8h1.9l8.2-29.8h17.7L293.7,77.9z M273.2,68.8h4.5
		l-2-9.7h-0.5L273.2,68.8z"/>
	<path d="M327.6,59.8h-8.4V56h-3.1v21.9h3.4v8h-20.4v-8h3.4V56h-3.1v3.8h-8.4V48h36.5V59.8z"/>
	<path d="M324.4,85.8v-8h7.6v8H324.4z"/>
	<path d="M371.7,77.9h2.4v8h-13.3l-7.3-15.1l-2.2,1.8v5.2h2.3v8h-18.4v-8h2.4V56h-2.4v-8h18.4v8h-2.3v6.4l7.5-6.4h-3.1v-8h18.1v8
		h-2.4l-8.1,6.7L371.7,77.9z"/>
	<path d="M375.9,77.9h2.4V56h-2.4v-8h22.3c4.2,0,7.4,0.9,9.6,2.6c2.2,1.7,3.3,4.5,3.3,8.4c0,2.2-0.4,4-1.3,5.6
		c-0.9,1.6-2.1,2.7-3.7,3.3l0,0.5c3.1,0.5,4.7,2.4,4.7,5.7v3.7h2.3v8h-15.4V74.4c0-1.3-0.2-2.2-0.6-2.9c-0.4-0.6-1-1.1-1.7-1.3
		c-0.8-0.2-1.9-0.3-3.4-0.3v8h3.2v8h-19.2V77.9z M394.5,64c0.9,0,1.6-0.3,2.1-0.8c0.5-0.5,0.7-1.3,0.7-2.4v-1.7
		c0-1.1-0.2-1.9-0.7-2.4c-0.5-0.5-1.2-0.8-2.1-0.8h-2.6v8H394.5z"/>
</g>
<g>
	<circle cx="318.2" cy="24.6" r="13"/>
	<g>
		<circle class="st1" cx="314.6" cy="32.3" r="1.5"/>
		<path d="M314.5,32.1c-0.2,0-0.3,0.1-0.3,0.3l0,0l-0.2,0.6v1.1h0.4V33l0.1-0.2l0,0c0.1,0,0.1,0.1,0.2,0.1c0.2,0,0.4-0.2,0.4-0.4
			C314.9,32.3,314.7,32.1,314.5,32.1z"/>
		<path class="st1" d="M314.6,14.4l0.4,4c0.1,0.4-2.1,1-2.5,3.6c0,0-0.4,1.1-1.1,1.5c-0.3,0.2-0.7,0-0.7,0s-0.7,4.7,4.7,6.2v1.1
			c0,0,5.5,3.3,10.2-2.9c0,0,1.1-6.9-1.1-8.7v-4.7l-3.3,2.9c0,0-1.8-0.4-3.3,0L314.6,14.4z"/>
		<path d="M313.5,22.5c0,0,0-2.5,3.3-2.2C316.8,20.3,316.4,23.2,313.5,22.5z"/>
		<circle class="st1" cx="316.8" cy="33" r="1.5"/>
		<path d="M316.9,32.9c0.2,0,0.3,0.1,0.3,0.3l0,0l0.2,0.6v1.1h-0.4v-1.1l-0.1-0.2l0,0c-0.1,0-0.1,0.1-0.2,0.1
			c-0.2,0-0.4-0.2-0.4-0.4C316.6,33,316.7,32.9,316.9,32.9z"/>
		<path class="st1" d="M318.6,32.2c1.1,0.2,5.9-1.2,6.9-3.9l-0.4,2.5c0.1,0.8-4.7,2.8-6.6,3.3V32.2z"/>
	</g>
</g>
</svg>
